<svg width="20" height="16" viewBox="0 0 20 16" fill="none" xmlns="http://www.w3.org/2000/svg">
<path d="M19.6809 8.41963L13.1294 14.9975C12.9189 15.208 12.6558 15.3132 12.3926 15.3132C12.1295 15.3132 11.8664 15.208 11.6559 14.9975C11.2349 14.5765 11.2349 13.9187 11.6559 13.4977L16.4183 8.70906H1.05245C0.473604 8.70906 0 8.23545 0 7.6566C0 7.07775 0.473604 6.60415 1.05245 6.60415H16.4183L11.6559 1.81549C11.2349 1.3945 11.2349 0.736718 11.6559 0.315736C12.0769 -0.105245 12.7347 -0.105245 13.1557 0.315736L19.7072 6.89357C20.1019 7.34087 20.1019 8.02496 19.6809 8.41963Z" fill="white"/>
</svg>
