<svg width="19" height="17" viewBox="0 0 19 17" fill="none" xmlns="http://www.w3.org/2000/svg">
<path d="M17.605 16.4H0.805C0.525 16.4 0.265 16.24 0.105 16C-0.035 15.76 -0.035 15.46 0.105 15.2L8.505 0.4C8.645 0.14 8.905 0 9.205 0C9.505 0 9.765 0.16 9.905 0.4L18.305 15.2C18.445 15.44 18.445 15.76 18.305 16C18.145 16.24 17.885 16.4 17.605 16.4ZM2.18501 14.8H16.245L9.225 2.41999L2.18501 14.8ZM10.005 10.02V6.3C10.005 5.86 9.645 5.5 9.205 5.5C8.765 5.5 8.405 5.86 8.405 6.3V10.02C8.405 10.46 8.765 10.82 9.205 10.82C9.645 10.82 10.005 10.46 10.005 10.02ZM9.905 13.34C10.085 13.16 10.205 12.9 10.205 12.64C10.205 12.38 10.105 12.12 9.905 11.94C9.725 11.76 9.465 11.64 9.205 11.64C8.945 11.64 8.685 11.74 8.505 11.94C8.325 12.12 8.205 12.38 8.205 12.64C8.205 12.9 8.305 13.16 8.505 13.34C8.685 13.52 8.945 13.64 9.205 13.64C9.465 13.64 9.725 13.52 9.905 13.34Z" fill="white"/>
</svg>
