<svg width="24" height="24" viewBox="0 0 24 24" fill="none" xmlns="http://www.w3.org/2000/svg">
<path d="M21.0651 11.56C20.9251 11.36 17.6851 6.6 12.0051 6.6C6.32506 6.6 3.08506 11.36 2.94506 11.56C2.76506 11.82 2.76506 12.18 2.94506 12.46C3.08506 12.66 6.32506 17.42 12.0051 17.42C17.6851 17.42 20.9251 12.66 21.0651 12.46C21.2451 12.18 21.2451 11.82 21.0651 11.56ZM12.0051 15.8C8.14506 15.8 5.50506 13.08 4.60506 12C5.50506 10.9 8.12506 8.2 12.0051 8.2C15.8651 8.2 18.5051 10.92 19.4051 12C18.5051 13.1 15.8651 15.8 12.0051 15.8ZM12.4651 8.72002C11.5851 8.60002 10.7251 8.82001 10.0051 9.36001C8.54506 10.46 8.24506 12.54 9.34506 14C9.88506 14.72 10.6451 15.16 11.5251 15.3C11.6851 15.32 11.8451 15.34 11.9851 15.34C12.7051 15.34 13.3851 15.1 13.9651 14.68C15.4251 13.58 15.7251 11.5 14.6251 10.04C14.1251 9.29999 13.3451 8.84002 12.4651 8.72002ZM13.2651 13.7C12.8251 14.04 12.2651 14.18 11.7051 14.1C11.1451 14.02 10.6451 13.72 10.3051 13.28C9.60506 12.34 9.78506 11.02 10.7251 10.3C11.1651 9.96 11.7251 9.82 12.2851 9.9C12.8451 9.98 13.3451 10.28 13.6851 10.72C14.3851 11.66 14.2051 13 13.2651 13.7ZM13.1851 10.8C13.3451 10.94 13.4251 11.16 13.4251 11.36C13.4251 11.56 13.3451 11.78 13.1851 11.92C13.0451 12.06 12.8251 12.16 12.6251 12.16C12.4051 12.16 12.2051 12.08 12.0651 11.92C11.9051 11.76 11.8251 11.56 11.8251 11.36C11.8251 11.14 11.9051 10.94 12.0651 10.8C12.2051 10.64 12.4251 10.56 12.6251 10.56C12.8451 10.58 13.0451 10.66 13.1851 10.8Z" fill="#555555"/>
</svg>
