<svg width="18" height="20" viewBox="0 0 18 20"  xmlns="http://www.w3.org/2000/svg">
<path d="M9.00472 5.94001C8.56472 5.94001 8.20472 5.58001 8.20472 5.14001V1.70002C8.20472 1.26002 8.56472 0.900024 9.00472 0.900024C9.44472 0.900024 9.80472 1.26002 9.80472 1.70002V5.14001C9.80472 5.58001 9.44472 5.94001 9.00472 5.94001ZM6.62472 6.72002C6.98472 6.46002 7.06472 5.96002 6.80472 5.60002L4.78472 2.82002C4.52472 2.46002 4.02472 2.38001 3.66472 2.64001C3.30472 2.90001 3.22472 3.40003 3.48472 3.76003L5.50472 6.54001C5.66472 6.76001 5.90473 6.86003 6.14473 6.86003C6.30473 6.88003 6.48472 6.82002 6.62472 6.72002ZM5.14473 8.74001C5.28473 8.32001 5.04472 7.86001 4.62472 7.74001L1.34473 6.68003C0.924725 6.54003 0.464725 6.78002 0.344725 7.20002C0.204725 7.62002 0.44472 8.08002 0.86472 8.20002L4.14473 9.26003C4.22473 9.28003 4.30472 9.30002 4.38472 9.30002C4.72472 9.30002 5.02472 9.08002 5.14473 8.74001ZM1.34473 13.32L4.62472 12.26C5.04472 12.12 5.28473 11.68 5.14473 11.26C5.00472 10.84 4.56472 10.62 4.14473 10.74L0.86472 11.8C0.44472 11.94 0.204725 12.38 0.344725 12.8C0.444725 13.14 0.764723 13.36 1.10472 13.36C1.18472 13.36 1.26473 13.36 1.34473 13.32ZM4.76472 17.18L6.80472 14.4C7.06472 14.04 6.98472 13.54 6.62472 13.28C6.26472 13.02 5.76472 13.1 5.50472 13.46L3.48472 16.24C3.22472 16.6 3.30472 17.1 3.66472 17.36C3.80472 17.46 3.96472 17.52 4.12472 17.52C4.36472 17.52 4.60472 17.4 4.76472 17.18ZM9.80472 18.3V14.86C9.80472 14.42 9.44472 14.06 9.00472 14.06C8.56472 14.06 8.20472 14.42 8.20472 14.86V18.3C8.20472 18.74 8.56472 19.1 9.00472 19.1C9.44472 19.1 9.80472 18.74 9.80472 18.3ZM14.3647 17.36C14.7247 17.1 14.8047 16.6 14.5447 16.24L12.5247 13.46C12.2647 13.1 11.7647 13.02 11.4047 13.28C11.0447 13.54 10.9647 14.04 11.2247 14.4L13.2447 17.18C13.4047 17.4 13.6447 17.5 13.8847 17.5C14.0447 17.52 14.2247 17.46 14.3647 17.36ZM17.6647 12.82C17.8047 12.4 17.5647 11.94 17.1447 11.82L13.8647 10.76C13.4447 10.62 12.9847 10.86 12.8647 11.28C12.7247 11.7 12.9647 12.16 13.3847 12.28L16.6647 13.34C16.7447 13.36 16.8247 13.38 16.9047 13.38C17.2447 13.36 17.5647 13.14 17.6647 12.82ZM13.8647 9.26003L17.1447 8.20002C17.5647 8.06002 17.8047 7.62002 17.6647 7.20002C17.5247 6.78002 17.0847 6.56003 16.6647 6.68003L13.3847 7.74001C12.9647 7.88001 12.7247 8.32001 12.8647 8.74001C12.9647 9.08002 13.2847 9.30002 13.6247 9.30002C13.7047 9.30002 13.7847 9.28003 13.8647 9.26003ZM12.5047 6.54001L14.5247 3.76003C14.7847 3.40003 14.7047 2.90001 14.3447 2.64001C13.9847 2.38001 13.4847 2.46002 13.2247 2.82002L11.2047 5.60002C10.9447 5.96002 11.0247 6.46002 11.3847 6.72002C11.5247 6.82002 11.6847 6.88003 11.8447 6.88003C12.1047 6.88003 12.3447 6.76001 12.5047 6.54001Z" fill="currentColor"/>
</svg>
