<svg width="170" height="92" viewBox="0 0 170 92" fill="none" xmlns="http://www.w3.org/2000/svg">
<path fill-rule="evenodd" clip-rule="evenodd" d="M35.6845 91.6645C36.0197 91.8015 36.379 91.8721 36.7419 91.8721C37.1638 91.8831 37.5827 91.7987 37.9663 91.6253L76.5304 72.6412H154.194C165.421 72.6412 170 68.1325 170 57.0791V15.6891C170 5.82219 167.561 0.126984 155.114 0.126984H15.8016C4.57948 0.126984 0 4.63569 0 15.6891V57.0791C0 68.1183 4.57948 72.627 15.8016 72.627H34.0231L33.9846 89.1479C33.9833 89.5051 34.0537 89.8592 34.1917 90.1896C34.3297 90.5201 34.5326 90.8205 34.7888 91.0736C35.0449 91.3267 35.3493 91.5275 35.6845 91.6645ZM5.51466 15.6891C5.51466 7.63991 7.60676 5.55642 15.8016 5.55642L155.095 5.57065C160.412 5.57065 162.008 6.648 162.75 7.46906C163.936 8.7837 164.466 11.3228 164.466 15.6891V57.0648C164.466 65.1141 162.369 67.1976 154.174 67.1976H75.8941C75.4658 67.1965 75.0432 67.294 74.66 67.4823L39.5282 84.7578V69.917C39.5256 69.202 39.2367 68.5167 38.724 68.0102C38.2113 67.5037 37.5164 67.2168 36.7901 67.2118H15.8016C7.63086 67.2118 5.51466 65.1473 5.51466 57.0791V15.6891ZM55.2068 31.407C54.149 30.8025 52.9401 30.5003 51.5801 30.5003C50.3928 30.5003 49.3134 30.727 48.342 31.1803C47.3706 31.612 46.5934 32.2165 46.0106 32.9936V24.7365H41.4772V48.6984H46.0106V38.7898C46.0106 37.3651 46.3668 36.2749 47.0791 35.5194C47.8131 34.7422 48.8061 34.3536 50.0582 34.3536C51.2887 34.3536 52.2601 34.7422 52.9725 35.5194C53.6848 36.2749 54.041 37.3651 54.041 38.7898V48.6984H58.5744V38.1746C58.5744 36.5555 58.2721 35.174 57.6677 34.0298C57.0848 32.8641 56.2645 31.9898 55.2068 31.407ZM79.432 41.0889C79.5184 40.5708 79.5615 39.9879 79.5615 39.3403C79.5615 37.5917 79.1838 36.0482 78.4282 34.7098C77.6942 33.3498 76.6472 32.3028 75.2872 31.5689C73.9488 30.8349 72.4269 30.4679 70.7215 30.4679C68.9514 30.4679 67.3863 30.8457 66.0263 31.6013C64.6663 32.3568 63.6085 33.4362 62.853 34.8394C62.0974 36.2425 61.7196 37.8724 61.7196 39.7289C61.7196 41.5638 62.0974 43.1828 62.853 44.586C63.6301 45.9892 64.6987 47.0794 66.0587 47.8565C67.4403 48.612 68.9945 48.9898 70.7215 48.9898C72.8587 48.9898 74.6612 48.4394 76.1292 47.3384C77.5971 46.2159 78.5901 44.7911 79.1082 43.0641H74.2187C73.5063 44.5105 72.3082 45.2336 70.6244 45.2336C69.4587 45.2336 68.4764 44.8667 67.6777 44.1327C66.879 43.3987 66.4257 42.3841 66.3177 41.0889H79.432ZM73.6034 35.2603C74.4238 35.9511 74.8447 36.8794 74.8663 38.0451H66.3501C66.5228 36.8362 66.9869 35.8971 67.7425 35.2279C68.5196 34.5371 69.4695 34.1917 70.592 34.1917C71.7793 34.1917 72.7831 34.5479 73.6034 35.2603ZM87.4038 24.7365V48.6984H82.8705V24.7365H87.4038ZM96.4161 48.6984V24.7365H91.8827V48.6984H96.4161ZM108.861 48.9898C107.134 48.9898 105.579 48.612 104.198 47.8565C102.816 47.0794 101.726 45.9892 100.927 44.586C100.15 43.1828 99.7617 41.5638 99.7617 39.7289C99.7617 37.894 100.161 36.2749 100.96 34.8717C101.78 33.4686 102.892 32.3892 104.295 31.6336C105.698 30.8565 107.263 30.4679 108.99 30.4679C110.717 30.4679 112.282 30.8565 113.685 31.6336C115.089 32.3892 116.19 33.4686 116.988 34.8717C117.809 36.2749 118.219 37.894 118.219 39.7289C118.219 41.5638 117.798 43.1828 116.956 44.586C116.136 45.9892 115.013 47.0794 113.588 47.8565C112.185 48.612 110.609 48.9898 108.861 48.9898ZM108.861 45.0394C109.681 45.0394 110.447 44.8451 111.16 44.4565C111.894 44.0463 112.477 43.4419 112.908 42.6432C113.34 41.8444 113.556 40.873 113.556 39.7289C113.556 38.0235 113.103 36.7174 112.196 35.8108C111.311 34.8825 110.221 34.4184 108.925 34.4184C107.63 34.4184 106.54 34.8825 105.655 35.8108C104.792 36.7174 104.36 38.0235 104.36 39.7289C104.36 41.4343 104.781 42.7511 105.623 43.6794C106.486 44.586 107.565 45.0394 108.861 45.0394ZM126.887 41.3479L127.405 25.7079H122.516L123.066 41.3479H126.887ZM123.034 48.1803C123.573 48.6768 124.253 48.9251 125.074 48.9251C125.872 48.9251 126.531 48.6768 127.049 48.1803C127.567 47.6622 127.826 47.0254 127.826 46.2698C127.826 45.5143 127.567 44.8882 127.049 44.3917C126.531 43.8736 125.872 43.6146 125.074 43.6146C124.253 43.6146 123.573 43.8736 123.034 44.3917C122.516 44.8882 122.257 45.5143 122.257 46.2698C122.257 47.0254 122.516 47.6622 123.034 48.1803Z" fill="url(#paint0_linear)"/>
<defs>
<linearGradient id="paint0_linear" x1="8.23437" y1="12.0539" x2="166.625" y2="17.7471" gradientUnits="userSpaceOnUse">
<stop offset="0.0778095" stop-color="#53A2FF"/>
<stop offset="1" stop-color="#6843F9" stop-opacity="0.49"/>
</linearGradient>
</defs>
</svg>
